<svg xmlns="http://www.w3.org/2000/svg" viewBox="0 0 144 144"><defs><linearGradient id="skin" x2=".8" y2="1"><stop stop-color="#ffbe45"/><stop offset="1" stop-color="#ffbe45" stop-opacity=".65"/></linearGradient></defs><rect width="144" height="144" rx="42" fill="#202740"/><circle cx="73" cy="66" r="64" fill="#ffbe45" opacity=".1"/><g fill="#ffbe45"><path d="M45 50L59 16L72 33L89 12L105 54Z"/></g><rect x="30" y="39" width="84" height="76" rx="35" fill="url(#skin)"/><path d="M27 145Q26 103 72 105Q119 103 120 145" fill="#ffbe45"/><ellipse cx="54" cy="72" rx="6" ry="9" fill="#17203a"/><ellipse cx="90" cy="72" rx="6" ry="9" fill="#17203a"/><circle cx="56" cy="69" r="2" fill="white"/><circle cx="92" cy="69" r="2" fill="white"/><path d="M61 91Q72 103 83 91" fill="none" stroke="#17203a" stroke-width="5" stroke-linecap="round"/><ellipse cx="43" cy="87" rx="8" ry="4" fill="white" opacity=".3"/><ellipse cx="102" cy="87" rx="8" ry="4" fill="white" opacity=".3"/><path d="M47 126H96" stroke="white" stroke-width="6" stroke-linecap="round" opacity=".3"/></svg>